<?xml version="1.0" standalone="no"?>
<!DOCTYPE svg PUBLIC "-//W3C//DTD SVG 20010904//EN"
 "http://www.w3.org/TR/2001/REC-SVG-20010904/DTD/svg10.dtd">
<svg version="1.0" xmlns="http://www.w3.org/2000/svg"
 width="736.000000pt" height="939.000000pt" viewBox="0 0 736.000000 939.000000"
 preserveAspectRatio="xMidYMid meet">
<metadata>
Created by potrace 1.13, written by Peter Selinger 2001-2015
</metadata>
<g transform="translate(0.000000,939.000000) scale(0.100000,-0.100000)"
fill="#000000" stroke="none">
<path d="M1265 9383 c-16 -2 -75 -10 -130 -19 -402 -62 -745 -267 -907 -540
-333 -565 182 -1199 1037 -1273 172 -15 165 -16 165 18 0 27 -4 30 -50 40
-130 28 -223 114 -309 287 -144 287 -161 718 -41 1046 78 213 217 361 359 384
37 6 41 9 41 35 l0 29 -67 -1 c-38 -1 -81 -4 -98 -6z m-127 -142 c-100 -109
-185 -291 -224 -485 -24 -116 -29 -372 -11 -501 34 -236 118 -440 233 -564 37
-40 59 -71 51 -71 -37 0 -191 34 -277 62 -440 141 -722 444 -724 777 -1 292
202 559 548 721 134 63 352 127 434 129 l34 1 -64 -69z"/>
<path d="M6812 9230 l-33 -99 -117 -3 -117 -3 93 -68 c50 -37 92 -71 92 -75 0
-5 -15 -54 -34 -110 -19 -56 -33 -102 -31 -102 3 0 45 30 95 66 l90 66 32 -23
c18 -13 59 -43 91 -67 32 -24 60 -43 62 -41 2 2 -12 51 -31 109 -19 58 -34
106 -34 107 0 0 42 32 93 70 l92 68 -117 3 -117 3 -33 99 c-18 55 -35 100 -38
100 -3 0 -20 -45 -38 -100z m56 -128 c11 -37 14 -38 52 -37 48 2 51 -8 10 -32
-34 -20 -34 -19 -19 -62 15 -42 8 -46 -26 -19 l-28 22 -40 -23 c-36 -21 -39
-22 -33 -5 20 52 18 69 -13 89 -40 26 -39 33 2 30 46 -4 56 3 63 41 8 44 18
43 32 -4z"/>
<path d="M2333 9148 l-50 -153 -172 -5 -172 -5 118 -83 c65 -45 127 -89 138
-97 19 -15 18 -18 -32 -168 -28 -83 -49 -154 -47 -156 2 -3 52 31 225 156 l46
33 134 -96 c73 -52 135 -91 136 -87 2 4 -19 73 -46 153 -27 80 -47 148 -45
152 3 3 63 48 135 100 l132 93 -170 3 -169 2 -48 148 c-27 81 -51 150 -55 155
-4 4 -30 -61 -58 -145z m91 -135 l27 -82 97 -3 97 -3 -70 -49 c-38 -27 -73
-52 -78 -56 -4 -3 6 -46 23 -95 16 -49 30 -91 30 -93 0 -2 -36 22 -80 53 -47
32 -86 53 -93 49 -6 -4 -42 -29 -79 -56 -42 -29 -68 -43 -68 -34 0 7 11 44 25
80 14 37 25 73 25 81 0 8 -34 38 -76 67 l-76 53 98 5 98 5 31 87 c16 48 33 84
36 80 4 -4 19 -44 33 -89z"/>
<path d="M5747 9098 c-20 -57 -43 -127 -52 -155 l-16 -53 -169 -2 -169 -3 134
-95 c74 -51 135 -97 135 -101 0 -4 -20 -65 -44 -136 -24 -70 -47 -139 -51
-152 -6 -21 3 -17 76 34 46 33 109 77 140 98 l56 39 134 -96 c73 -52 135 -94
136 -92 2 1 -20 71 -47 155 -28 84 -50 154 -50 156 0 1 61 44 134 96 l135 94
-168 3 -167 2 -53 155 c-30 85 -55 155 -56 155 -1 0 -18 -46 -38 -102z m72
-179 l28 -84 97 -5 97 -5 -75 -53 c-42 -29 -76 -56 -76 -60 0 -5 13 -47 29
-95 l30 -86 -79 54 c-42 30 -81 55 -85 55 -4 0 -39 -22 -79 -50 -40 -27 -75
-50 -78 -50 -3 0 7 37 23 81 16 45 29 85 29 89 0 5 -35 34 -77 64 l-77 56 97
0 c69 0 99 4 101 13 17 54 60 167 63 164 2 -2 16 -42 32 -88z"/>
<path d="M3642 9150 c-226 -47 -446 -397 -583 -925 l-39 -150 0 -597 0 -598
-95 0 -95 0 0 -459 0 -460 -156 -123 c-86 -68 -225 -177 -309 -243 -84 -66
-310 -244 -503 -395 -193 -151 -351 -278 -352 -282 0 -5 340 -8 755 -8 497 0
755 -3 755 -10 0 -5 16 -10 35 -10 l35 0 0 -75 c0 -73 1 -75 25 -75 29 0 30 7
-12 -145 -22 -78 -26 -117 -30 -296 l-5 -206 26 -7 c31 -8 46 -1 46 20 0 23
45 107 70 129 l22 20 -6 -65 c-23 -252 -40 -419 -55 -531 -9 -71 -15 -132 -12
-134 2 -3 16 -5 31 -5 25 0 29 6 57 97 16 54 52 178 79 275 27 98 52 178 55
178 6 0 99 -162 99 -173 0 -4 -7 -7 -15 -7 -14 0 -15 -13 -9 -98 7 -105 -7
-263 -32 -359 -39 -152 -123 -308 -218 -406 -54 -56 -55 -57 -111 -57 -173 0
-449 -144 -600 -313 -64 -72 -61 -78 -44 103 31 341 139 726 312 1109 l51 113
-25 19 c-13 10 -26 19 -29 19 -6 0 -43 -82 -117 -259 -108 -259 -198 -559
-237 -796 -33 -199 -47 -453 -25 -439 7 4 0 -13 -15 -37 -15 -24 -32 -54 -38
-66 l-10 -21 -52 24 c-46 22 -64 24 -191 24 -138 -1 -141 -1 -200 -33 l-60
-32 -58 77 c-146 195 -370 344 -590 393 -63 14 -113 16 -270 13 -178 -4 -198
-6 -272 -32 -99 -34 -201 -85 -282 -141 l-61 -43 -81 40 c-56 28 -98 41 -141
45 -59 6 -60 5 -60 -19 0 -23 6 -26 56 -36 78 -16 189 -77 250 -139 101 -101
154 -232 154 -385 0 -77 0 -78 26 -78 l26 0 -3 128 c-4 125 -5 128 -45 212
-23 47 -62 108 -88 137 l-46 51 37 31 c54 45 224 126 318 153 70 20 102 23
250 22 155 0 178 -3 258 -27 160 -49 300 -132 418 -248 56 -55 149 -174 149
-190 0 -5 -18 -32 -39 -59 -60 -76 -81 -143 -81 -255 l0 -95 26 0 c24 0 26 3
20 33 -9 48 10 142 42 211 112 238 419 298 612 119 69 -64 117 -151 127 -230
6 -51 5 -52 -23 -58 -318 -68 -540 -188 -744 -402 l-98 -103 -73 0 c-40 0 -87
-5 -105 -12 -31 -11 -35 -10 -56 18 -43 55 -93 96 -153 125 -58 28 -65 29
-206 29 -136 0 -148 -2 -197 -26 -79 -39 -154 -113 -196 -193 -35 -67 -36 -72
-36 -180 0 -102 2 -111 19 -111 16 0 19 10 23 89 3 75 9 99 36 154 42 85 105
147 190 189 62 31 74 33 167 33 90 0 106 -3 160 -29 33 -17 84 -54 113 -82
l52 -53 -62 -63 c-37 -37 -75 -88 -92 -123 -27 -54 -30 -70 -30 -165 -1 -100
0 -105 20 -108 20 -3 22 2 26 86 3 75 9 100 36 155 58 117 170 200 300 222
l42 7 -50 -82 c-135 -217 -202 -452 -204 -710 -1 -80 3 -162 7 -182 7 -34 11
-38 38 -38 l30 0 -8 53 c-24 162 4 411 67 595 191 549 745 911 1308 854 433
-44 800 -289 1005 -672 115 -215 166 -448 153 -702 l-6 -129 27 3 c23 2 29 10
36 43 13 61 1 349 -18 435 -107 483 -423 853 -865 1010 -160 58 -243 72 -423
75 l-158 3 -5 66 c-5 79 -40 156 -104 228 l-41 48 26 47 c87 161 265 333 430
415 221 111 499 129 735 48 88 -31 132 -53 222 -113 l77 -51 -29 -51 c-52 -91
-70 -163 -70 -280 l0 -105 28 0 27 0 -3 68 c-11 235 151 461 376 523 272 76
556 -85 636 -360 l16 -54 -49 -66 c-134 -182 -204 -381 -218 -621 l-6 -107
-53 -12 c-64 -15 -159 -76 -209 -134 -20 -23 -50 -69 -66 -102 -28 -58 -30
-67 -27 -165 3 -97 5 -105 23 -105 17 0 19 6 17 42 -12 154 90 324 232 390 55
25 72 28 166 28 96 0 110 -3 160 -29 146 -76 230 -212 230 -371 0 -55 2 -63
18 -61 15 3 17 17 20 106 3 96 1 106 -27 167 -20 41 -52 86 -91 124 l-60 61
21 29 c30 43 103 95 167 120 71 27 195 30 262 5 111 -41 210 -141 246 -249 10
-29 18 -85 18 -124 1 -69 2 -73 24 -73 21 0 22 3 22 104 0 98 -2 107 -35 173
-43 87 -121 163 -210 204 -63 30 -66 30 -202 27 -167 -4 -202 -17 -305 -119
l-67 -66 -53 13 c-29 8 -76 14 -105 14 l-53 0 0 68 c0 157 44 332 121 483 203
396 641 619 1070 544 496 -87 859 -526 859 -1040 l0 -51 -80 -10 c-169 -23
-321 -137 -407 -306 -41 -81 -53 -137 -53 -252 0 -92 0 -94 25 -98 25 -5 25
-5 25 74 0 152 52 279 155 384 203 205 517 205 720 0 109 -110 155 -220 155
-373 0 -82 0 -83 25 -83 l25 0 0 110 c0 119 -18 189 -74 283 -77 132 -249 249
-388 263 l-68 7 0 63 c0 135 -33 297 -90 433 l-28 70 21 14 c151 99 430 177
635 177 l82 0 0 30 0 30 -87 0 c-190 0 -415 -57 -590 -148 l-91 -48 -41 62
c-55 84 -176 211 -259 272 -378 280 -896 281 -1272 2 -36 -27 -78 -62 -94 -79
-33 -35 -46 -39 -46 -14 0 9 -18 55 -41 101 -55 114 -151 210 -264 267 l-80
40 -141 3 -142 4 -16 61 c-35 133 -40 178 -41 327 0 91 -4 158 -10 162 -5 4
-20 8 -31 8 -20 0 -22 -7 -29 -97 -8 -112 6 -256 36 -386 12 -49 19 -90 17
-91 -1 -2 -35 -20 -73 -40 -39 -20 -93 -56 -120 -80 l-50 -43 -60 42 c-78 55
-185 109 -281 140 -63 20 -96 25 -185 25 -60 0 -109 2 -109 5 0 3 22 33 50 67
93 115 171 298 200 468 8 41 14 125 14 186 1 110 1 111 24 111 42 1 46 15 29
105 -19 94 -40 259 -34 264 2 2 21 -22 43 -53 42 -62 59 -71 87 -51 17 13 16
18 -17 88 -51 111 -70 221 -61 345 4 55 9 129 10 165 3 57 5 65 24 68 19 3 21
10 21 78 l0 74 40 0 40 0 0 -74 c0 -43 4 -76 11 -78 7 -2 4 -32 -7 -92 -16
-80 -16 -108 -5 -290 6 -110 14 -232 18 -269 l6 -68 30 3 c29 3 31 6 52 93
l23 90 1 -82 c0 -45 -4 -116 -10 -159 -8 -62 -8 -79 3 -85 34 -22 48 -9 90 81
22 49 44 88 48 85 4 -2 31 -90 61 -195 47 -167 56 -190 74 -190 47 1 47 2 43
264 -1 135 -1 246 2 246 3 0 15 -15 27 -33 34 -50 156 -165 151 -142 -3 11
-30 106 -61 210 -69 238 -77 276 -66 323 5 20 9 76 9 125 l0 87 30 0 30 0 0
75 0 75 35 0 c19 0 35 5 35 10 0 7 258 10 755 10 415 0 755 3 755 8 -1 4 -96
82 -213 173 -117 91 -372 291 -567 445 -195 153 -394 310 -443 347 l-87 68 0
455 0 454 -100 0 -100 0 0 608 0 607 -40 154 c-172 657 -407 977 -678 921z
m165 -80 c123 -54 254 -252 358 -539 31 -87 36 -111 29 -139 l-9 -34 -130 1
-130 0 -28 91 c-16 50 -32 89 -35 85 -4 -3 -18 -43 -32 -88 l-26 -82 -124 0
-123 0 -25 80 c-13 44 -27 83 -31 88 -4 4 -20 -33 -36 -83 l-29 -90 -116 0
-117 0 -11 37 c-10 33 -7 46 34 152 101 261 232 449 353 511 85 43 147 45 228
10z m124 -760 c47 0 49 -8 9 -35 -22 -15 -29 -25 -25 -40 3 -11 8 -31 12 -44
l6 -24 -35 26 -35 27 -33 -25 c-19 -14 -35 -25 -36 -25 -2 0 3 18 11 40 l14
39 -37 30 -37 30 46 1 c45 0 46 1 59 43 l13 42 14 -42 c14 -41 17 -43 54 -43z
m-417 35 c7 -34 8 -35 54 -35 l47 -1 -35 -28 c-34 -28 -34 -30 -24 -70 6 -23
10 -41 10 -41 -1 0 -17 11 -35 25 l-34 24 -35 -27 c-31 -23 -34 -24 -29 -7 20
68 20 72 -12 91 -41 25 -39 32 11 36 38 3 43 6 52 36 12 42 22 41 30 -3z m590
-79 l40 -34 -20 -64 c-10 -34 -18 -66 -16 -70 1 -5 -23 -8 -55 -8 -31 0 -54 3
-50 6 3 3 -3 31 -14 61 -10 31 -19 62 -19 69 0 11 77 74 89 74 4 -1 24 -16 45
-34z m-745 -5 l35 -29 -19 -63 c-11 -35 -19 -67 -17 -71 1 -5 -16 -8 -38 -8
-22 0 -39 3 -38 8 2 4 -6 36 -17 71 l-19 63 35 29 c19 16 36 28 39 28 3 0 20
-12 39 -28z m363 3 c25 -17 37 -33 34 -43 -36 -129 -37 -131 -77 -131 -36 0
-36 0 -54 62 -9 34 -19 67 -21 73 -4 9 61 65 75 65 3 0 22 -12 43 -26z m578
-799 l0 -605 -85 0 -85 0 0 -600 0 -600 33 -1 c17 -1 35 -1 40 0 13 2 6 -93
-13 -164 -17 -64 -17 -71 -2 -82 22 -18 39 -16 52 5 8 12 10 -25 8 -145 l-4
-162 28 -6 c27 -6 28 -8 28 -73 l0 -67 -285 3 c-191 2 -285 -1 -285 -8 0 -5
-18 -10 -40 -10 -22 0 -40 5 -40 10 0 7 -94 10 -285 8 l-285 -3 1 95 c1 89 2
93 14 65 8 -16 14 -38 15 -47 0 -19 26 -24 49 -9 12 8 12 30 2 142 -6 74 -11
152 -11 174 l1 40 20 -27 c18 -24 23 -26 45 -16 13 6 24 15 24 19 0 4 -13 60
-30 124 -16 64 -30 123 -30 131 0 9 11 14 35 14 l35 0 0 605 0 605 -85 0 -85
0 0 588 c0 324 3 592 7 595 3 4 278 7 610 7 l603 0 0 -605z m-1110 -1195 l0
-540 -150 0 -150 0 0 540 0 540 150 0 150 0 0 -540z m1310 -14 l0 -545 -152 2
-153 2 -3 530 c-1 292 0 536 3 543 3 9 44 12 155 12 l150 0 0 -544z m-1648
-586 c20 0 21 -4 15 -66 -4 -36 -4 -115 0 -175 l6 -109 29 0 c22 0 28 5 28 21
0 29 21 102 33 114 6 6 7 -36 3 -117 l-6 -128 25 -6 c25 -6 25 -7 25 -120 l0
-114 -162 2 -161 3 -34 100 c-18 54 -33 105 -33 111 0 7 49 47 110 91 60 43
110 80 110 83 0 3 -63 4 -139 2 l-139 -3 -37 113 c-21 62 -40 118 -42 124 -2
7 47 52 109 100 62 49 140 110 173 137 l60 48 3 -106 c3 -99 4 -105 24 -105z
m1890 63 l157 -124 -42 -122 -42 -122 -138 -5 -138 -5 111 -79 c60 -44 110
-82 110 -85 0 -3 -16 -54 -36 -113 l-36 -108 -159 0 -159 0 1 158 c1 141 2
153 13 112 7 -25 15 -44 19 -42 4 1 19 2 33 2 26 0 26 0 19 64 -6 57 -5 65 11
68 16 3 18 19 21 153 2 83 6 156 8 163 2 6 18 12 35 12 l30 0 0 106 c0 81 3
104 13 98 6 -4 83 -63 169 -131z m-1618 -94 c11 -56 7 -66 -14 -34 l-20 30 -1
-135 -1 -135 -22 66 c-11 37 -26 64 -32 62 -7 -2 -14 17 -17 48 -7 60 -5 56
-38 64 -23 6 -28 3 -38 -26 -16 -45 -21 -33 -14 34 l6 57 92 0 93 0 6 -31z
m1306 6 c0 -9 -9 -15 -24 -15 -19 0 -24 -6 -29 -37 -4 -21 -4 -62 0 -92 7 -58
-10 -67 -22 -11 -9 42 -22 37 -31 -12 -7 -39 -8 -41 -15 -18 -4 14 -7 64 -8
113 l-1 87 65 0 c51 0 65 -3 65 -15z m-2011 -166 c-18 -52 -36 -100 -42 -106
-10 -14 -197 -19 -197 -5 1 8 262 214 267 209 1 -2 -11 -46 -28 -98z m2656 -7
c66 -52 122 -98 123 -103 2 -6 -39 -9 -99 -7 l-102 3 -27 80 c-39 115 -44 138
-28 129 7 -4 67 -50 133 -102z m-143 -102 l23 -65 69 -3 68 -3 -52 -39 c-29
-22 -54 -41 -56 -43 -2 -2 5 -30 16 -62 11 -32 20 -62 20 -67 0 -5 -25 10 -56
33 l-55 42 -61 -43 c-34 -24 -59 -37 -56 -29 3 8 13 38 23 68 20 61 26 48 -56
113 l-34 27 67 1 67 0 22 70 c13 38 24 68 25 67 2 -2 13 -32 26 -67z m-2436
-2 l20 -63 69 -5 69 -5 -52 -35 c-28 -19 -52 -42 -52 -51 0 -8 7 -37 16 -63 9
-26 14 -49 11 -52 -3 -3 -28 11 -56 31 l-51 37 -47 -34 c-75 -53 -74 -53 -53
8 11 32 20 63 20 70 0 8 -22 30 -50 51 -27 20 -50 40 -50 43 0 3 30 5 67 5
l67 0 20 63 c11 34 23 62 26 62 3 0 15 -28 26 -62z m-260 -109 c46 -34 84 -67
84 -73 0 -6 -15 -57 -33 -111 l-34 -100 -289 -3 c-287 -2 -289 -2 -269 17 58
57 432 340 443 336 8 -3 52 -33 98 -66z m3224 -90 c113 -88 214 -169 225 -180
19 -19 16 -19 -271 -19 l-290 0 -36 110 -36 111 91 69 c51 38 97 70 102 70 6
0 102 -73 215 -161z m-2912 -136 l77 -58 -77 -3 c-43 -2 -113 -2 -155 0 l-78
3 75 57 c41 31 76 57 78 57 1 1 37 -25 80 -56z m2447 -7 l70 -51 -77 -3 c-42
-2 -113 -2 -158 0 l-80 3 77 56 c43 31 83 54 88 51 6 -3 41 -29 80 -56z
m-1405 -171 l0 -55 -220 0 -220 0 0 55 0 55 220 0 220 0 0 -55z m640 0 l0 -55
-220 0 -220 0 0 55 0 55 220 0 220 0 0 -55z m-685 -145 c4 -17 1 -71 -6 -120
-7 -52 -9 -131 -6 -186 l6 -96 -23 21 c-12 12 -26 21 -31 21 -8 0 0 -271 11
-325 3 -19 -20 13 -62 84 l-67 113 -14 -33 c-8 -19 -30 -88 -49 -153 -37 -127
-50 -157 -40 -91 15 101 26 325 20 406 -7 88 -16 110 -30 67 -8 -28 -63 -112
-99 -153 l-27 -30 5 120 c3 89 13 154 37 253 l32 132 168 0 168 0 7 -30z m627
-10 c4 -19 2 -69 -4 -110 -6 -41 -11 -93 -10 -114 2 -34 40 -192 59 -243 4
-10 -16 7 -44 37 -28 30 -55 51 -59 47 -5 -4 -8 -100 -7 -213 0 -113 -3 -202
-7 -197 -3 4 -14 37 -24 73 -24 88 -77 213 -86 203 -4 -4 -21 -33 -36 -63
l-29 -55 -6 95 c-5 97 -37 265 -48 254 -3 -3 -20 -45 -37 -92 l-32 -87 -8 60
c-15 117 -11 325 9 388 l18 57 171 -2 172 -3 8 -35z"/>
<path d="M3614 7769 c-120 -34 -233 -184 -286 -376 -31 -112 -31 -344 0 -458
44 -164 139 -302 242 -355 28 -15 70 -25 113 -28 60 -4 73 -2 131 27 109 53
183 150 236 309 92 275 29 633 -142 799 -82 80 -194 111 -294 82z m173 -69
c98 -44 195 -195 227 -352 20 -98 20 -267 1 -366 -31 -154 -130 -308 -228
-352 -127 -58 -264 15 -347 184 -61 124 -74 188 -74 351 0 157 13 220 69 342
80 173 223 252 352 193z"/>
<path d="M4932 7535 l-33 -104 -116 -3 -117 -3 92 -67 c51 -37 92 -71 92 -76
0 -4 -15 -54 -34 -110 -19 -56 -33 -102 -30 -102 2 0 43 29 91 65 49 36 91 65
94 65 3 0 45 -29 94 -65 49 -35 90 -63 91 -62 2 1 -13 50 -32 107 -18 58 -34
106 -34 107 0 1 42 33 92 70 l93 68 -117 3 -116 3 -33 104 c-18 58 -35 105
-38 105 -3 0 -21 -47 -39 -105z m54 -127 c9 -30 14 -33 52 -36 23 -2 42 -6 42
-10 0 -4 -14 -16 -30 -27 -22 -15 -29 -25 -25 -40 3 -11 8 -31 12 -45 l6 -25
-35 27 -35 27 -33 -24 c-39 -29 -44 -27 -30 9 16 42 12 53 -20 73 -41 24 -38
33 15 33 43 0 44 1 51 35 8 44 18 45 30 3z"/>
<path d="M2221 7405 l-31 -104 -115 -3 -115 -3 90 -65 c49 -36 90 -67 90 -71
0 -3 -16 -52 -35 -109 -19 -57 -34 -105 -32 -106 1 -1 41 26 90 62 48 35 92
64 97 64 5 0 47 -27 92 -60 45 -33 83 -58 85 -56 3 2 -10 50 -27 106 -17 56
-30 103 -28 105 2 2 43 33 93 69 l89 66 -116 0 -117 0 -32 105 c-18 58 -35
105 -39 105 -4 0 -21 -47 -39 -105z m55 -128 c9 -28 16 -33 55 -37 l44 -5 -33
-24 c-26 -18 -32 -29 -28 -45 3 -11 9 -32 13 -45 l6 -24 -37 28 -36 27 -35
-26 c-38 -29 -41 -26 -23 24 10 31 9 35 -23 61 l-34 28 42 1 c40 0 43 2 54 40
13 44 19 44 35 -3z"/>
<path d="M420 6996 c-5 -15 -10 -31 -10 -36 0 -5 -12 -40 -26 -79 l-26 -70
-110 -3 -110 -3 86 -63 c47 -34 86 -68 86 -75 0 -7 -14 -53 -30 -102 -17 -49
-29 -93 -27 -98 1 -4 42 22 91 57 l89 65 51 -36 c28 -20 68 -50 89 -66 21 -16
40 -27 42 -25 3 3 -11 51 -30 108 -19 57 -31 106 -27 109 4 3 45 33 91 66 l83
60 -113 5 -112 5 -33 99 c-19 54 -36 101 -38 104 -3 3 -10 -7 -16 -22z m89
-246 l46 0 -38 -25 c-20 -14 -37 -28 -37 -31 0 -2 7 -20 14 -39 17 -40 10 -44
-27 -15 -31 25 -36 25 -67 0 -36 -28 -41 -25 -25 19 l13 39 -36 26 -37 26 43
0 c42 0 44 2 60 41 l16 42 15 -42 c15 -40 16 -41 60 -41z"/>
<path d="M6390 6645 l-52 -155 -171 -2 -172 -3 138 -98 c75 -54 137 -99 137
-100 0 -2 -22 -70 -50 -152 -27 -82 -50 -153 -50 -157 0 -4 60 35 134 87 73
52 137 95 141 95 4 0 68 -43 141 -95 74 -52 134 -91 134 -87 0 4 -22 75 -50
157 -27 82 -50 150 -50 151 0 1 62 46 138 101 l137 98 -172 3 -171 2 -52 155
c-28 85 -53 155 -55 155 -2 0 -27 -70 -55 -155z m89 -126 l28 -84 96 -3 c54
-1 97 -6 97 -10 0 -4 -34 -29 -75 -57 -41 -27 -75 -52 -75 -56 0 -3 13 -45 29
-92 16 -48 26 -87 22 -87 -3 0 -39 25 -80 55 -41 30 -79 51 -85 48 -6 -4 -41
-28 -77 -55 -37 -26 -69 -48 -72 -48 -3 0 8 41 25 91 25 75 28 93 17 100 -8 4
-38 26 -68 48 -30 23 -58 41 -63 41 -4 0 -8 4 -8 10 0 5 43 11 97 12 l96 3 30
88 c16 49 31 86 33 84 3 -2 17 -42 33 -88z"/>
<path d="M903 6040 c-6 -14 -30 -85 -54 -157 l-43 -133 -171 -2 -170 -3 137
-97 137 -98 -50 -147 c-27 -81 -48 -151 -46 -156 1 -4 59 33 129 82 70 50 132
91 138 91 7 0 69 -40 140 -90 71 -49 131 -90 133 -90 3 0 -17 66 -44 147 -27
81 -49 152 -49 158 0 5 61 53 136 105 l135 95 -172 5 -172 5 -52 155 c-46 136
-54 152 -62 130z m170 -352 l99 -3 -76 -53 c-42 -29 -76 -59 -76 -66 0 -7 11
-46 25 -86 14 -40 25 -78 25 -83 0 -5 -24 8 -52 29 -29 21 -65 47 -80 57 l-26
20 -78 -57 c-43 -30 -79 -54 -81 -53 -2 2 11 43 27 92 17 49 26 91 22 94 -4 3
-35 25 -69 48 -34 24 -65 47 -68 53 -4 6 28 10 89 10 l94 0 28 83 c14 45 29
86 32 92 3 5 19 -32 36 -82 l30 -92 99 -3z"/>
<path d="M521 4475 l-32 -105 -116 0 -116 0 91 -66 c51 -36 92 -69 92 -73 0
-4 -15 -53 -34 -109 -19 -56 -32 -102 -29 -102 3 0 45 29 94 65 l89 66 89 -66
c49 -36 91 -65 94 -65 3 0 -11 48 -30 106 -19 59 -30 110 -26 114 4 4 45 35
91 68 l83 61 -113 3 -113 3 -35 103 c-19 56 -38 102 -41 102 -3 0 -20 -47 -38
-105z m58 -125 c11 -38 14 -40 54 -40 l41 0 -32 -27 c-30 -26 -32 -30 -22 -62
5 -19 8 -36 6 -39 -3 -2 -18 6 -35 19 l-31 23 -31 -23 c-17 -13 -32 -21 -35
-19 -2 3 1 20 8 38 11 32 10 35 -23 62 l-33 28 41 0 c40 0 43 2 54 40 7 22 15
40 19 40 4 0 12 -18 19 -40z"/>
<path d="M4619 4492 l-26 -17 57 -130 c188 -424 309 -883 310 -1173 0 -83 0
-83 40 -125 l39 -42 1 50 c0 333 -109 800 -282 1210 -33 77 -69 164 -81 192
-12 29 -24 53 -27 53 -3 0 -17 -8 -31 -18z"/>
<path d="M6648 4185 c-3 -6 -17 -48 -32 -95 -14 -47 -30 -90 -34 -97 -5 -8
-46 -13 -122 -15 l-115 -3 87 -63 c48 -35 90 -67 93 -72 3 -6 -8 -53 -24 -105
-17 -52 -31 -100 -31 -105 0 -6 40 19 90 55 57 42 94 64 102 59 7 -5 49 -34
92 -66 44 -32 81 -56 83 -55 1 2 -13 50 -32 108 l-36 104 28 22 c15 13 56 42
90 65 35 24 63 46 63 51 0 4 -51 7 -113 7 l-113 0 -35 107 c-19 59 -38 103
-41 98z m18 -227 c9 -30 14 -33 52 -36 50 -4 53 -14 11 -39 -22 -13 -29 -23
-24 -38 3 -11 8 -31 12 -44 l6 -25 -33 24 -33 24 -40 -23 c-36 -21 -39 -22
-33 -5 21 55 19 71 -13 90 -39 23 -39 29 2 28 48 0 56 5 63 42 8 43 18 43 30
2z"/>
<path d="M5180 806 c-162 -61 -292 -188 -350 -344 -18 -46 -22 -80 -23 -177
l-1 -120 25 0 c23 0 24 2 21 60 -12 213 117 424 309 509 189 83 396 49 548
-89 116 -106 173 -235 174 -392 1 -90 1 -93 24 -93 23 0 23 1 23 120 0 140
-16 194 -87 302 -56 86 -128 149 -222 196 l-75 37 -165 2 c-119 2 -176 -2
-201 -11z"/>
<path d="M374 772 c-136 -48 -265 -165 -331 -299 -37 -77 -38 -80 -41 -210
l-4 -133 24 0 c22 0 23 3 24 88 1 99 13 150 56 238 125 256 436 357 697 227
76 -38 178 -142 219 -223 40 -81 65 -196 59 -272 -5 -56 -4 -58 20 -58 l25 0
-4 133 c-3 129 -4 134 -41 211 -52 110 -163 221 -273 273 l-79 38 -150 3
c-124 2 -159 -1 -201 -16z"/>
</g>
</svg>
